<svg width="112" height="24" viewBox="0 0 112 24" fill="none" xmlns="http://www.w3.org/2000/svg">
<path d="M22 9.24L14.81 8.62L12 2L9.19 8.63L2 9.24L7.46 13.97L5.82 21L12 17.27L18.18 21L16.55 13.97L22 9.24ZM12 15.4L8.24 17.67L9.24 13.39L5.92 10.51L10.3 10.13L12 6.1L13.71 10.14L18.09 10.52L14.77 13.4L15.77 17.68L12 15.4Z" fill="#012443"/>
<path d="M66 9.24L58.81 8.62L56 2L53.19 8.63L46 9.24L51.46 13.97L49.82 21L56 17.27L62.18 21L60.55 13.97L66 9.24ZM56 15.4L52.24 17.67L53.24 13.39L49.92 10.51L54.3 10.13L56 6.1L57.71 10.14L62.09 10.52L58.77 13.4L59.77 17.68L56 15.4Z" fill="#012443"/>
<path d="M44 9.24L36.81 8.62L34 2L31.19 8.63L24 9.24L29.46 13.97L27.82 21L34 17.27L40.18 21L38.55 13.97L44 9.24ZM34 15.4L30.24 17.67L31.24 13.39L27.92 10.51L32.3 10.13L34 6.1L35.71 10.14L40.09 10.52L36.77 13.4L37.77 17.68L34 15.4Z" fill="#012443"/>
<path d="M80.3497 8.81536L80.4673 9.0923L80.767 9.11815L86.7801 9.63666L82.2223 13.5924L81.9949 13.7897L82.0629 14.0829L83.4258 19.9608L78.2584 16.8419L78 16.686L77.7416 16.8419L72.5761 19.9596L73.9469 14.0836L74.0155 13.7897L73.7874 13.5921L69.2231 9.63803L75.2323 9.12821L75.5327 9.10272L75.6504 8.82511L78.0003 3.28048L80.3497 8.81536ZM73.7531 17.5562L73.4833 18.7109L74.4984 18.098L77.9998 15.9842L81.5113 18.1078L82.527 18.7221L82.2569 17.5662L81.3255 13.58L84.4176 10.8977L85.3096 10.1239L84.1332 10.0219L80.0531 9.66789L78.4605 5.90511L77.9992 4.81541L77.5393 5.90566L75.9565 9.65793L71.8768 10.0119L70.7004 10.1139L71.5924 10.8877L74.6845 13.57L73.7531 17.5562Z" fill="#012443" stroke="#012443"/>
<path d="M110 9.24L102.81 8.62L100 2L97.19 8.63L90 9.24L95.46 13.97L93.82 21L100 17.27L106.18 21L104.55 13.97L110 9.24ZM100 15.4L96.24 17.67L97.24 13.39L93.92 10.51L98.3 10.13L100 6.1L101.71 10.14L106.09 10.52L102.77 13.4L103.77 17.68L100 15.4Z" fill="#012443"/>
</svg>
